<svg width="14" height="14" viewBox="0 0 14 14" fill="none" xmlns="http://www.w3.org/2000/svg">
<path d="M13.4192 2.04933L12.2434 10.9925C12.1634 11.6006 11.6034 12.0245 10.9994 11.9445L10.3716 11.8605L9.19974 2.95736C9.09955 2.20923 8.45971 1.6453 7.70371 1.6453C7.63983 1.6453 7.5718 1.64923 7.50771 1.65733L5.06405 1.97736L5.19596 0.965421C5.21478 0.820928 5.2619 0.681564 5.33463 0.555298C5.40736 0.429032 5.50426 0.318342 5.6198 0.229558C5.73534 0.140774 5.86725 0.0756379 6.00799 0.0378755C6.14872 0.000113168 6.29552 -0.0095349 6.43999 0.00948312L12.4635 0.805514C12.608 0.824338 12.7473 0.871453 12.8736 0.944166C12.9998 1.01688 13.1105 1.11376 13.1993 1.22928C13.288 1.3448 13.3532 1.47668 13.391 1.61739C13.4287 1.7581 13.4382 1.90488 13.4192 2.04933ZM9.9798 11.9535L8.80293 3.0103C8.78395 2.86588 8.7367 2.72662 8.6639 2.60047C8.5911 2.47432 8.49416 2.36374 8.37862 2.27505C8.26307 2.18637 8.1312 2.12131 7.99051 2.08359C7.84982 2.04587 7.70309 2.03624 7.55868 2.05523L1.53561 2.84798C1.244 2.88637 0.979577 3.03902 0.800511 3.27236C0.621444 3.5057 0.542402 3.80062 0.58077 4.09223L1.75743 13.0352C1.77641 13.1796 1.82365 13.3188 1.89645 13.445C1.96926 13.5711 2.0662 13.6817 2.18174 13.7704C2.29728 13.8591 2.42916 13.9242 2.56984 13.9619C2.71053 13.9996 2.85727 14.0092 3.00168 13.9902L9.02474 13.1977C9.16915 13.1787 9.30841 13.1315 9.43456 13.0587C9.56072 12.9859 9.67129 12.8889 9.75998 12.7734C9.84867 12.6579 9.91373 12.526 9.95145 12.3853C9.98916 12.2446 9.9988 12.0979 9.9798 11.9535Z" fill="#F2BE0B"/>
</svg>
