<svg width="41" height="40" viewBox="0 0 41 40" fill="none" xmlns="http://www.w3.org/2000/svg">
<path d="M30.2815 23.3248C29.844 20.831 29.4065 18.2935 28.969 15.7998C28.8377 15.0123 28.7065 14.181 28.5315 13.3935C28.269 11.906 27.1315 10.6373 25.6002 10.3748C24.8565 10.2435 24.069 10.2873 23.369 10.2873H15.8877C13.8752 10.2873 11.9065 11.1185 11.469 13.2623C10.8127 17.0248 10.1127 20.7873 9.50024 24.506C9.19399 26.2998 9.98149 28.1373 11.5565 29.056C12.4315 29.581 13.394 29.6685 14.3565 29.6685H25.0315C25.7752 29.6685 26.519 29.7123 27.219 29.5373C29.0565 29.0998 30.369 27.4373 30.5002 25.556C30.6315 24.856 30.4127 24.0685 30.2815 23.3248ZM17.944 18.8185C16.8065 18.206 16.0627 17.0248 15.8877 15.756C15.8002 15.056 15.844 14.356 15.844 13.6998C15.844 12.8685 17.1565 12.8685 17.1565 13.6998C17.1565 14.3123 17.069 14.9685 17.2002 15.581C17.5065 17.5935 19.7815 18.6435 21.5315 17.5935C22.319 17.1123 22.844 16.1935 22.8877 15.2748V13.656C22.8877 12.8248 24.2002 12.8248 24.2002 13.656C24.2002 14.4873 24.2877 15.406 24.069 16.2373C23.3252 18.8623 20.2627 20.131 17.944 18.8185Z" fill="#A4A4A4"/>
</svg>
