<svg width="40" height="40" viewBox="0 0 40 40" fill="none" xmlns="http://www.w3.org/2000/svg">
<path d="M19.0666 17.1998C19.0666 18.2263 18.226 19.0666 17.1998 19.0666H10.6666C9.64008 19.0666 8.7998 18.2263 8.7998 17.1998V10.6666C8.7998 9.64008 9.64008 8.7998 10.6666 8.7998H17.1998C18.226 8.7998 19.0666 9.64008 19.0666 10.6666V17.1998ZM19.0666 29.333C19.0666 30.3595 18.226 31.1998 17.1998 31.1998H10.6666C9.64008 31.1998 8.7998 30.3595 8.7998 29.333V22.7998C8.7998 21.7736 9.64008 20.9333 10.6666 20.9333H17.1998C18.226 20.9333 19.0666 21.7736 19.0666 22.7998V29.333ZM20.933 8.7998H25.5998V10.6666H20.933V8.7998ZM20.933 16.2666H27.4666V18.1333H20.933V16.2666ZM20.933 12.533H31.1998V14.3998H20.933V12.533ZM20.933 20.9333H31.1998V22.7998H20.933V20.9333ZM20.933 28.3998H27.4666V30.2666H20.933V28.3998ZM20.933 24.6666H25.5998V26.533H20.933V24.6666Z" fill="#A4A4A4"/>
</svg>
