<svg width="48" height="48" viewBox="0 0 48 48" fill="none" xmlns="http://www.w3.org/2000/svg">
<rect width="48" height="48" rx="24" fill="#F0971C"/>
<path d="M33.5 23.0857V24.0057C33.4988 26.1621 32.8005 28.2604 31.5093 29.9875C30.2182 31.7147 28.4033 32.9782 26.3354 33.5896C24.2674 34.201 22.0573 34.1276 20.0345 33.3803C18.0117 32.633 16.2847 31.2518 15.111 29.4428C13.9373 27.6338 13.3798 25.4938 13.5217 23.342C13.6636 21.1903 14.4972 19.1421 15.8983 17.5028C17.2994 15.8635 19.1928 14.7211 21.2962 14.2459C23.3996 13.7706 25.6003 13.9881 27.57 14.8657M33.5 16.0057L23.5 26.0157L20.5 23.0157" stroke="white" stroke-width="2" stroke-linecap="round" stroke-linejoin="round"/>
</svg>
