<svg width="26" height="26" viewBox="0 0 26 26" fill="none" xmlns="http://www.w3.org/2000/svg">
<g clip-path="url(#clip0_1528_1432)">
<path d="M13 0.8125C10.5895 0.8125 8.23322 1.52728 6.22899 2.86646C4.22477 4.20564 2.66267 6.10907 1.74022 8.33605C0.817781 10.563 0.576427 13.0135 1.04668 15.3777C1.51694 17.7418 2.67769 19.9134 4.38214 21.6179C6.08659 23.3223 8.2582 24.4831 10.6223 24.9533C12.9865 25.4236 15.437 25.1822 17.664 24.2598C19.8909 23.3373 21.7944 21.7752 23.1335 19.771C24.4727 17.7668 25.1875 15.4105 25.1875 13C25.1839 9.7688 23.8986 6.67098 21.6138 4.38617C19.329 2.10137 16.2312 0.816156 13 0.8125ZM15.1994 17.3006C15.277 17.3755 15.3389 17.4652 15.3815 17.5643C15.4241 17.6634 15.4465 17.77 15.4475 17.8779C15.4484 17.9858 15.4278 18.0928 15.387 18.1926C15.3461 18.2925 15.2858 18.3832 15.2095 18.4595C15.1332 18.5358 15.0425 18.5961 14.9427 18.637C14.8428 18.6778 14.7358 18.6984 14.6279 18.6975C14.52 18.6965 14.4134 18.6741 14.3143 18.6315C14.2152 18.5889 14.1255 18.527 14.0506 18.4494L9.17557 13.5744C9.02325 13.4221 8.93768 13.2154 8.93768 13C8.93768 12.7846 9.02325 12.5779 9.17557 12.4256L14.0506 7.55056C14.2038 7.40256 14.409 7.32066 14.6221 7.32252C14.8351 7.32437 15.0389 7.40982 15.1895 7.56046C15.3402 7.7111 15.4256 7.91489 15.4275 8.12792C15.4293 8.34096 15.3474 8.5462 15.1994 8.69944L10.8989 13L15.1994 17.3006Z" fill="white"/>
</g>
<defs>
<clipPath id="clip0_1528_1432">
<rect width="26" height="26" fill="white"/>
</clipPath>
</defs>
</svg>
