<svg width="40" height="40" viewBox="0 0 40 40" fill="none" xmlns="http://www.w3.org/2000/svg">
<rect width="40" height="40" rx="20" fill="#F0971C"/>
<path fill-rule="evenodd" clip-rule="evenodd" d="M30.7314 12.4689C31.0313 12.769 31.1998 13.1759 31.1998 13.6001C31.1998 14.0244 31.0313 14.4313 30.7314 14.7313L17.9314 27.5313C17.6313 27.8313 17.2244 27.9998 16.8002 27.9998C16.3759 27.9998 15.969 27.8313 15.669 27.5313L9.26896 21.1313C8.97751 20.8296 8.81624 20.4254 8.81988 20.0059C8.82353 19.5864 8.9918 19.1851 9.28845 18.8884C9.58511 18.5918 9.98641 18.4235 10.4059 18.4199C10.8254 18.4162 11.2296 18.5775 11.5314 18.8689L16.8002 24.1377L28.469 12.4689C28.769 12.169 29.1759 12.0005 29.6002 12.0005C30.0244 12.0005 30.4313 12.169 30.7314 12.4689Z" fill="white"/>
</svg>
