<svg width="41" height="40" viewBox="0 0 41 40" fill="none" xmlns="http://www.w3.org/2000/svg">
<path d="M15.4572 27.2883C12.1812 24.7636 8.3335 21.7991 8.3335 16.6599C8.3335 10.9864 14.7502 6.96261 20.0002 12.4179L22.3335 14.7489C22.4994 14.9035 22.7188 14.9876 22.9454 14.9836C23.1721 14.9796 23.3884 14.8878 23.5487 14.7275C23.709 14.5672 23.8009 14.3509 23.8049 14.1242C23.8089 13.8975 23.7247 13.6781 23.5702 13.5123L21.3185 11.2571C26.264 7.63694 31.6668 11.4543 31.6668 16.6599C31.6668 21.7991 27.8192 24.7636 24.5432 27.2883C24.2025 27.5508 23.8677 27.8086 23.5445 28.0629C22.3335 29.0173 21.1668 29.9168 20.0002 29.9168C18.8335 29.9168 17.6668 29.0184 16.4558 28.0618C16.1327 27.8086 15.7978 27.5508 15.4572 27.2883Z" fill="#A4A4A4"/>
</svg>
