<svg width="50" height="50" viewBox="0 0 50 50" fill="none" xmlns="http://www.w3.org/2000/svg">
<rect width="50" height="50" rx="25" fill="#363636"/>
<path d="M11 25.9805V37.9805C11 39.0845 11.898 39.9805 13 39.9805H23V25.9805H11ZM39 17.9805H32.672C33.126 17.6705 33.516 17.3625 33.788 17.0865C35.402 15.4645 35.402 12.8245 33.788 11.2025C32.22 9.62254 29.488 9.62654 27.922 11.2025C27.054 12.0725 24.754 15.6145 25.072 17.9805H24.928C25.244 15.6145 22.944 12.0725 22.078 11.2025C20.51 9.62654 17.778 9.62654 16.212 11.2025C14.6 12.8245 14.6 15.4645 16.21 17.0865C16.484 17.3625 16.874 17.6705 17.328 17.9805H11C9.898 17.9805 9 18.8785 9 19.9805V22.9805C9 23.5325 9.448 23.9805 10 23.9805H23V19.9805H27V23.9805H40C40.552 23.9805 41 23.5325 41 22.9805V19.9805C41 18.8785 40.104 17.9805 39 17.9805ZM22.882 17.9145C22.882 17.9145 22.798 17.9805 22.512 17.9805C21.13 17.9805 18.492 16.5445 17.63 15.6765C16.792 14.8325 16.792 13.4565 17.63 12.6125C18.036 12.2045 18.574 11.9805 19.146 11.9805C19.716 11.9805 20.254 12.2045 20.66 12.6125C22.008 13.9685 23.348 17.4325 22.882 17.9145ZM27.486 17.9805C27.202 17.9805 27.118 17.9165 27.118 17.9145C26.652 17.4325 27.992 13.9685 29.34 12.6125C30.146 11.7985 31.556 11.7945 32.37 12.6125C33.21 13.4565 33.21 14.8325 32.37 15.6765C31.508 16.5445 28.87 17.9805 27.486 17.9805ZM27 25.9805V39.9805H37C38.104 39.9805 39 39.0845 39 37.9805V25.9805H27Z" fill="#A4A4A4"/>
</svg>
