<svg width="70" height="70" viewBox="0 0 70 70" fill="none" xmlns="http://www.w3.org/2000/svg">
<rect width="70" height="70" rx="35" fill="#F0971C"/>
<g clip-path="url(#clip0_728_2091)">
<path d="M53.8281 29.1406H52.6562V27.9688C52.6562 27.321 52.1321 26.7969 51.4844 26.7969C50.8366 26.7969 50.3125 27.321 50.3125 27.9688V29.1406H49.1406C48.4929 29.1406 47.9688 29.6648 47.9688 30.3125C47.9688 30.9602 48.4929 31.4844 49.1406 31.4844H50.3125V32.6562C50.3125 33.304 50.8366 33.8281 51.4844 33.8281C52.1321 33.8281 52.6562 33.304 52.6562 32.6562V31.4844H53.8281C54.4759 31.4844 55 30.9602 55 30.3125C55 29.6648 54.4759 29.1406 53.8281 29.1406Z" fill="white"/>
<path d="M49.0625 24.4531C49.7097 24.4531 50.2344 23.9285 50.2344 23.2812C50.2344 22.634 49.7097 22.1094 49.0625 22.1094C48.4153 22.1094 47.8906 22.634 47.8906 23.2812C47.8906 23.9285 48.4153 24.4531 49.0625 24.4531Z" fill="white"/>
<path d="M44.375 31.4844C45.0222 31.4844 45.5469 30.9597 45.5469 30.3125C45.5469 29.6653 45.0222 29.1406 44.375 29.1406C43.7278 29.1406 43.2031 29.6653 43.2031 30.3125C43.2031 30.9597 43.7278 31.4844 44.375 31.4844Z" fill="white"/>
<path d="M34.1714 43.5464C34.6291 43.0887 35.3708 43.0887 35.8285 43.5464L36.1719 43.8898V33.8281H33.8281V43.8898L34.1714 43.5464Z" fill="white"/>
<path d="M46.7185 33.8282H38.5154V46.7188C38.5156 46.9505 38.447 47.1772 38.3182 47.3699C38.1894 47.5626 38.0063 47.7128 37.7922 47.8013C37.578 47.8901 37.3424 47.9133 37.115 47.8681C36.8877 47.8229 36.6789 47.7112 36.515 47.5473L34.9998 46.032L33.4846 47.5473C33.3209 47.7116 33.1121 47.8235 32.8847 47.8687C32.6572 47.9139 32.4215 47.8905 32.2074 47.8013C31.9932 47.7128 31.8102 47.5626 31.6814 47.3699C31.5526 47.1771 31.484 46.9505 31.4841 46.7188V33.8282H30.8271L22.1093 38.8615V53.8281C22.1093 54.4758 22.6334 55 23.2811 55H46.7185C47.3662 55 47.8904 54.4758 47.8904 53.8281V35.0001C47.8904 34.3523 47.3662 33.8282 46.7185 33.8282ZM43.9649 22.1829L41.6213 18.1235C41.4657 17.8545 41.2097 17.6582 40.9096 17.5777C40.6093 17.4984 40.29 17.5403 40.0203 17.6944L36.4151 19.7759C36.4179 18.9583 36.2241 18.0717 35.8044 17.3451C35.1783 16.2602 34.1679 15.4843 32.9582 15.1604C31.7509 14.8389 30.4863 15.0036 29.4014 15.6285C27.8989 16.4971 27.0005 18.1141 27.0599 19.849L27.068 20.0962C27.068 20.1053 27.068 20.1134 27.0692 20.1225L27.1836 23.5839L24.294 21.7834C24.2929 21.7822 24.2906 21.7811 24.2894 21.7799L24.0789 21.6483C22.6049 20.7316 20.7578 20.6973 19.253 21.5659C18.168 22.1919 17.3922 23.2023 17.0683 24.412C16.7444 25.6217 16.9104 26.885 17.5363 27.97C17.9641 28.7094 18.5662 29.2843 19.2585 29.6816L15.5862 31.7568C15.0256 32.0806 14.8336 32.7972 15.1572 33.3578L17.5787 37.4175C17.9023 37.9779 18.6189 38.1701 19.1795 37.8465L43.5361 23.7837C44.0966 23.4602 44.2885 22.7435 43.9649 22.1829ZM22.7672 27.6557C21.6469 28.3 20.2116 27.917 19.5664 26.7982C18.9198 25.679 19.3055 24.2415 20.4247 23.5962C21.1765 23.1601 22.1024 23.1784 22.8383 23.6373L26.1509 25.7021L22.7672 27.6557ZM34.0088 20.3734C33.8476 20.9771 33.4599 21.4825 32.9182 21.7949L29.5335 23.7491L29.4014 19.7688C29.3869 19.3439 29.4884 18.923 29.6948 18.5512C29.9012 18.1795 30.2049 17.8709 30.5733 17.6585C31.1134 17.3438 31.7452 17.2626 32.3517 17.4239C32.9559 17.5864 33.4618 17.9744 33.7742 18.5168C34.0878 19.0594 34.1713 19.7681 34.0088 20.3734Z" fill="white"/>
</g>
<defs>
<clipPath id="clip0_728_2091">
<rect width="40" height="40" fill="white" transform="translate(15 15)"/>
</clipPath>
</defs>
</svg>
