<svg width="28" height="28" viewBox="0 0 28 28" fill="none" xmlns="http://www.w3.org/2000/svg">
<path fill-rule="evenodd" clip-rule="evenodd" d="M11.6953 3.20325C12.3744 2.73876 13.1779 2.49023 14.0007 2.49023C14.8234 2.49023 15.6269 2.73876 16.306 3.20325L23.8893 8.39258C24.4372 8.76736 24.8855 9.27008 25.1953 9.85719C25.5052 10.4443 25.6672 11.0981 25.6673 11.7619V21.5829C25.6673 22.6659 25.2371 23.7045 24.4713 24.4703C23.7056 25.236 22.667 25.6662 21.584 25.6662H6.41732C5.33435 25.6662 4.29574 25.236 3.52996 24.4703C2.76419 23.7045 2.33398 22.6659 2.33398 21.5829V11.7619C2.33414 11.0981 2.49615 10.4443 2.80597 9.85719C3.11578 9.27008 3.56406 8.76736 4.11198 8.39258L11.6953 3.20325ZM11.084 20.4163C10.9293 20.4163 10.7809 20.4777 10.6715 20.5871C10.5621 20.6965 10.5007 20.8449 10.5007 20.9996C10.5007 21.1543 10.5621 21.3027 10.6715 21.4121C10.7809 21.5215 10.9293 21.5829 11.084 21.5829H16.9173C17.072 21.5829 17.2204 21.5215 17.3298 21.4121C17.4392 21.3027 17.5007 21.1543 17.5007 20.9996C17.5007 20.8449 17.4392 20.6965 17.3298 20.5871C17.2204 20.4777 17.072 20.4163 16.9173 20.4163H11.084Z" fill="white"/>
</svg>
