<svg width="40" height="40" viewBox="0 0 40 40" fill="none" xmlns="http://www.w3.org/2000/svg">
<path fill-rule="evenodd" clip-rule="evenodd" d="M16.4998 22.3335C14.9527 22.3335 13.469 22.9481 12.375 24.042C11.2811 25.136 10.6665 26.6197 10.6665 28.1668C10.6665 29.0951 11.0353 29.9853 11.6916 30.6417C12.348 31.2981 13.2382 31.6668 14.1665 31.6668H25.8332C26.7614 31.6668 27.6517 31.2981 28.308 30.6417C28.9644 29.9853 29.3332 29.0951 29.3332 28.1668C29.3332 26.6197 28.7186 25.136 27.6246 24.042C26.5307 22.9481 25.0469 22.3335 23.4998 22.3335H16.4998ZM19.9998 8.3335C18.4527 8.3335 16.969 8.94808 15.875 10.042C14.7811 11.136 14.1665 12.6197 14.1665 14.1668C14.1665 15.7139 14.7811 17.1977 15.875 18.2916C16.969 19.3856 18.4527 20.0002 19.9998 20.0002C21.5469 20.0002 23.0307 19.3856 24.1246 18.2916C25.2186 17.1977 25.8332 15.7139 25.8332 14.1668C25.8332 12.6197 25.2186 11.136 24.1246 10.042C23.0307 8.94808 21.5469 8.3335 19.9998 8.3335Z" fill="#A4A4A4"/>
</svg>
