<svg width="26" height="26" viewBox="0 0 26 26" fill="none" xmlns="http://www.w3.org/2000/svg">
<g clip-path="url(#clip0_2315_669)">
<path d="M20.3125 15.4376C19.5467 15.4383 18.7918 15.6197 18.1094 15.9672C17.4269 16.3146 16.836 16.8183 16.3849 17.4371L10.3488 14.426C10.6338 13.4967 10.6338 12.5034 10.3488 11.5741L16.3849 8.56301C17.1021 9.53314 18.1574 10.1986 19.3419 10.4278C20.5264 10.657 21.7538 10.4331 22.7812 9.80055C23.8085 9.16796 24.5609 8.17275 24.8894 7.01188C25.218 5.85101 25.0988 4.60909 24.5554 3.53193C24.012 2.45477 23.084 1.62087 21.9551 1.19527C20.8262 0.769678 19.5786 0.783407 18.4593 1.23374C17.3401 1.68408 16.4306 2.5382 15.9111 3.62706C15.3915 4.71591 15.2996 5.96015 15.6537 7.11351L9.61759 10.1246C9.01098 9.29414 8.15726 8.67676 7.17855 8.36082C6.19984 8.04487 5.14628 8.04654 4.16858 8.36558C3.19087 8.68463 2.33911 9.30471 1.73514 10.1371C1.13116 10.9695 0.805908 11.9716 0.805908 13.0001C0.805908 14.0285 1.13116 15.0306 1.73514 15.863C2.33911 16.6954 3.19087 17.3155 4.16858 17.6346C5.14628 17.9536 6.19984 17.9553 7.17855 17.6393C8.15726 17.3234 9.01098 16.706 9.61759 15.8755L15.6537 18.8866C15.3535 19.8678 15.3706 20.9186 15.7025 21.8895C16.0344 22.8603 16.6641 23.7017 17.5021 24.2938C18.34 24.886 19.3434 25.1986 20.3693 25.1873C21.3953 25.1759 22.3915 24.8412 23.2161 24.2307C24.0408 23.6202 24.6517 22.7651 24.9621 21.7871C25.2724 20.8092 25.2663 19.7582 24.9446 18.784C24.6229 17.8097 24.002 16.9618 23.1703 16.3609C22.3386 15.7601 21.3385 15.437 20.3125 15.4376Z" fill="white"/>
</g>
<defs>
<clipPath id="clip0_2315_669">
<rect width="26" height="26" fill="white"/>
</clipPath>
</defs>
</svg>
