<svg width="30" height="30" viewBox="0 0 30 30" fill="none" xmlns="http://www.w3.org/2000/svg">
<rect width="30" height="30" rx="15" fill="#A4A4A4"/>
<path d="M14.8025 12.7526C14.802 12.7526 14.8014 12.7526 14.8009 12.7526C14.6316 12.7517 14.4952 12.6137 14.4961 12.4445L14.5241 7.32238C14.525 7.15314 14.6701 7.01765 14.8323 7.01758C15.0016 7.0185 15.138 7.15646 15.1371 7.3257L15.109 12.4478C15.1081 12.6165 14.971 12.7526 14.8025 12.7526Z" fill="white"/>
<path d="M14.7834 16.472C13.9712 16.472 13.3105 15.8113 13.3105 14.9992C13.3105 14.1871 13.9713 13.5264 14.7834 13.5264C15.5954 13.5264 16.2561 14.1871 16.2561 14.9992C16.2561 15.8113 15.5955 16.472 14.7834 16.472ZM14.7834 14.1394C14.3092 14.1394 13.9235 14.5251 13.9235 14.9993C13.9235 15.4735 14.3092 15.8592 14.7834 15.8592C15.2574 15.8592 15.6431 15.4735 15.6431 14.9993C15.6432 14.5251 15.2575 14.1394 14.7834 14.1394Z" fill="white"/>
<path d="M12.2264 19.8332C12.1751 19.8332 12.1236 19.8203 12.0769 19.7942C11.969 19.7338 11.9079 19.6144 11.922 19.4916L12.2714 16.4611L9.4697 15.336C9.3549 15.2899 9.27914 15.1794 9.27737 15.0557C9.27575 14.9321 9.34854 14.8195 9.46201 14.7704L12.2611 13.5577L11.8346 10.5688C11.8171 10.4463 11.8749 10.3254 11.9811 10.2622C12.0873 10.1989 12.2212 10.2055 12.3206 10.2794L14.7703 12.0971L17.1455 10.2334C17.2429 10.157 17.3763 10.1467 17.4844 10.2069C17.5923 10.2673 17.6534 10.3867 17.6393 10.5096L17.2899 13.54L20.0916 14.6651C20.2064 14.7112 20.2822 14.8217 20.2839 14.9454C20.2856 15.069 20.2128 15.1815 20.0992 15.2307L17.3001 16.4433L17.7267 19.4323C17.7441 19.5548 17.6864 19.6756 17.5801 19.7389C17.4738 19.802 17.34 19.7954 17.2406 19.7217L14.7909 17.9039L12.4157 19.7678C12.3605 19.8111 12.2937 19.8332 12.2264 19.8332ZM10.3795 15.0409L12.7168 15.9794C12.8449 16.0309 12.9229 16.1617 12.9071 16.2989L12.615 18.8321L14.5964 17.2773C14.7051 17.192 14.8573 17.1898 14.9683 17.2723L17.0161 18.7918L16.6603 16.2984C16.6408 16.1616 16.7152 16.0287 16.8419 15.9739L19.1816 14.9602L16.8445 14.0217C16.7163 13.9702 16.6384 13.8394 16.6542 13.7022L16.9462 11.169L14.9648 12.7238C14.856 12.809 14.7038 12.8112 14.5929 12.7288L12.5451 11.2093L12.9009 13.7027C12.9205 13.8395 12.8461 13.9723 12.7193 14.0272L10.3795 15.0409Z" fill="white"/>
<path d="M14.7933 9.85101C14.7303 9.85101 14.6672 9.83166 14.6137 9.7929L13.2031 8.77258C13.066 8.67338 13.0351 8.48176 13.1343 8.34464C13.2335 8.20745 13.4254 8.17674 13.5623 8.27587L14.7923 9.16564L16.0632 8.23683C16.1999 8.13692 16.3916 8.16671 16.4915 8.30341C16.5914 8.44003 16.5615 8.63179 16.4249 8.7317L14.9742 9.79198C14.9202 9.83138 14.8567 9.85101 14.7933 9.85101Z" fill="white"/>
<path d="M12.5776 14.0119C12.5251 14.0119 12.472 13.9983 12.4233 13.9699L8.00149 11.3846C7.85534 11.2992 7.80612 11.1115 7.89156 10.9654C7.97699 10.8191 8.16445 10.77 8.31081 10.8554L12.7326 13.4407C12.8788 13.5262 12.928 13.7139 12.8426 13.86C12.7855 13.9574 12.683 14.0119 12.5776 14.0119Z" fill="white"/>
<path d="M8.47464 13.2818C8.35757 13.2818 8.24573 13.2143 8.19482 13.1005C8.12563 12.946 8.19475 12.7647 8.34924 12.6956L9.7348 12.0752L9.56584 10.5102C9.54763 10.3419 9.66935 10.1908 9.8376 10.1726C10.007 10.1552 10.1572 10.2761 10.1752 10.4443L10.3681 12.2309C10.3824 12.363 10.31 12.4892 10.1887 12.5435L8.59975 13.255C8.55908 13.2732 8.51658 13.2818 8.47464 13.2818Z" fill="white"/>
<path d="M8.11154 19.1038C8.00499 19.1038 7.90148 19.0482 7.845 18.9491C7.76112 18.802 7.81238 18.6149 7.95938 18.5311L12.4092 15.9943C12.5567 15.9106 12.7435 15.9618 12.8273 16.1087C12.9112 16.2558 12.8599 16.443 12.7129 16.5268L8.26306 19.0634C8.21511 19.0908 8.16301 19.1038 8.11154 19.1038Z" fill="white"/>
<path d="M9.87572 19.7573C9.86527 19.7573 9.85461 19.7568 9.84402 19.7557C9.67562 19.7384 9.55319 19.5879 9.57056 19.4196L9.72596 17.9094L8.28617 17.2732C8.13134 17.2047 8.06137 17.0239 8.12971 16.8689C8.19827 16.7143 8.37902 16.6446 8.534 16.7125L10.1775 17.4387C10.2989 17.4925 10.372 17.6183 10.3584 17.7505L10.1802 19.4823C10.164 19.6399 10.0309 19.7573 9.87572 19.7573Z" fill="white"/>
<path d="M14.7361 22.983C14.7356 22.983 14.735 22.983 14.7345 22.983C14.5652 22.9821 14.4288 22.8441 14.4297 22.6749L14.4577 17.5529C14.4586 17.3841 14.5957 17.248 14.7642 17.248C14.7647 17.248 14.7653 17.248 14.7658 17.248C14.9352 17.249 15.0716 17.3869 15.0706 17.5562L15.0426 22.6782C15.0417 22.8469 14.9046 22.983 14.7361 22.983Z" fill="white"/>
<path d="M13.3224 21.8217C13.228 21.8217 13.1347 21.7781 13.0747 21.6961C12.9748 21.5594 13.0047 21.3677 13.1413 21.2678L14.5919 20.2075C14.6993 20.1291 14.8448 20.1287 14.9524 20.2066L16.3631 21.2268C16.5003 21.326 16.531 21.5176 16.4318 21.6548C16.3327 21.7922 16.1411 21.8228 16.0039 21.7235L14.7737 20.8339L13.5029 21.7627C13.4485 21.8025 13.3851 21.8217 13.3224 21.8217Z" fill="white"/>
<path d="M21.4077 19.1848C21.3552 19.1848 21.302 19.1712 21.2534 19.1427L16.8316 16.5575C16.6854 16.472 16.6362 16.2843 16.7216 16.1382C16.807 15.9921 16.9947 15.9428 17.1409 16.0283L21.5627 18.6136C21.7089 18.699 21.7581 18.8867 21.6726 19.0328C21.6156 19.1304 21.5131 19.1848 21.4077 19.1848Z" fill="white"/>
<path d="M19.6963 19.8288C19.5418 19.8288 19.4089 19.7123 19.3919 19.5553L19.199 17.7689C19.1848 17.6367 19.2572 17.5105 19.3785 17.4562L20.9674 16.7447C21.1219 16.6754 21.3032 16.7446 21.3724 16.8991C21.4416 17.0535 21.3724 17.2349 21.2179 17.304L19.8324 17.9245L20.0013 19.4894C20.0196 19.6577 19.8978 19.8089 19.7296 19.8271C19.7183 19.8281 19.7073 19.8288 19.6963 19.8288Z" fill="white"/>
<path d="M17.0041 14.0463C16.8976 14.0463 16.7941 13.9908 16.7376 13.8916C16.6537 13.7445 16.705 13.5573 16.852 13.4735L21.3018 10.9367C21.4492 10.8529 21.6361 10.9043 21.7199 11.0511C21.8037 11.1983 21.7525 11.3854 21.6055 11.4692L17.1556 14.006C17.1077 14.0334 17.0555 14.0463 17.0041 14.0463Z" fill="white"/>
<path d="M14.8303 5C14.4253 5 14.0957 5.32952 14.0957 5.73458C14.0957 6.13964 14.4252 6.46923 14.8303 6.46923C15.2353 6.46923 15.5649 6.13971 15.5649 5.73458C15.5649 5.32952 15.2353 5 14.8303 5Z" fill="white"/>
<path d="M7.14907 9.69012C6.79851 9.48748 6.34826 9.60822 6.14562 9.95898C6.04755 10.1289 6.02143 10.3269 6.07219 10.5164C6.12296 10.7059 6.24447 10.8644 6.41442 10.9624C6.5276 11.0278 6.65328 11.0612 6.78058 11.0612C6.84434 11.0612 6.90851 11.0528 6.97185 11.0359C7.16135 10.9851 7.31979 10.8635 7.41786 10.6936C7.62043 10.3428 7.49984 9.89261 7.14907 9.69012Z" fill="white"/>
<path d="M6.92455 18.8821C6.73519 18.8317 6.53721 18.8573 6.36712 18.9556C6.01635 19.1581 5.89576 19.6083 6.09826 19.959C6.19633 20.1289 6.35477 20.2505 6.54427 20.3013C6.60761 20.3183 6.67179 20.3266 6.73561 20.3266C6.86291 20.3266 6.98852 20.2932 7.1017 20.2279C7.27165 20.1298 7.39323 19.9714 7.44393 19.7818C7.49476 19.5923 7.46864 19.3943 7.3705 19.2244C7.2725 19.0545 7.11413 18.933 6.92455 18.8821Z" fill="white"/>
<path d="M14.7366 23.5308C14.3315 23.5308 14.002 23.8603 14.002 24.2654C14.002 24.6705 14.3315 25.0001 14.7366 25.0001C15.1416 25.0001 15.4711 24.6705 15.4711 24.2654C15.4711 23.8603 15.1416 23.5308 14.7366 23.5308Z" fill="white"/>
<path d="M23.1486 19.0381C22.9787 18.94 22.7808 18.9142 22.5912 18.9646C22.4017 19.0155 22.2432 19.1371 22.1452 19.3069C21.9426 19.6576 22.0633 20.1079 22.414 20.3104C22.5272 20.3758 22.6529 20.4092 22.7801 20.4092C22.8439 20.4092 22.9081 20.4007 22.9715 20.3838C23.161 20.333 23.3194 20.2114 23.4175 20.0415C23.5155 19.8716 23.5417 19.6737 23.4909 19.4842C23.4401 19.2946 23.3186 19.1361 23.1486 19.0381Z" fill="white"/>
<path d="M22.638 11.1169C22.7013 11.1339 22.7655 11.1422 22.8293 11.1422C22.9567 11.1422 23.0823 11.1088 23.1955 11.0434C23.5462 10.8409 23.6668 10.3908 23.4643 10.04C23.2616 9.68915 22.8117 9.56863 22.4609 9.77113C22.1101 9.97369 21.9895 10.4238 22.192 10.7746C22.2901 10.9446 22.4484 11.0662 22.638 11.1169Z" fill="white"/>
<path d="M21.1569 13.3144C21.1155 13.3144 21.0734 13.3059 21.0332 13.2882L19.3897 12.562C19.2682 12.5083 19.1951 12.3824 19.2086 12.2503L19.3868 10.5185C19.4041 10.3501 19.5548 10.2265 19.723 10.245C19.8914 10.2623 20.0138 10.4128 19.9965 10.5812L19.8411 12.0913L21.2808 12.7274C21.4357 12.7959 21.5057 12.9768 21.4373 13.1316C21.3867 13.2462 21.2744 13.3144 21.1569 13.3144Z" fill="white"/>
</svg>
